<?xml version="1.0" encoding="utf-8"?>
<!-- Generator: Adobe Illustrator 24.1.2, SVG Export Plug-In . SVG Version: 6.00 Build 0)  -->
<svg version="1.1" id="Слой_1" xmlns="http://www.w3.org/2000/svg" xmlns:xlink="http://www.w3.org/1999/xlink" x="0px" y="0px"
	 viewBox="0 0 131 130" style="enable-background:new 0 0 131 130;" xml:space="preserve">
<style type="text/css">
	.st0{fill:url(#SVGID_1_);}
	.st1{fill:url(#SVGID_2_);}
	.st2{fill:#484848;}
</style>
<radialGradient id="SVGID_1_" cx="46.3493" cy="85.3838" r="1" gradientTransform="matrix(7.888501e-15 -128.829 -119.853 -7.338880e-15 10268.043 6111.1348)" gradientUnits="userSpaceOnUse">
	<stop  offset="0" style="stop-color:#FFDD55"/>
	<stop  offset="0.1" style="stop-color:#FFDD55"/>
	<stop  offset="0.5" style="stop-color:#FF543E"/>
	<stop  offset="1" style="stop-color:#C837AB"/>
</radialGradient>
<path class="st0" d="M65,0C37.9,0,30,0,28.4,0.2c-5.6,0.5-9,1.3-12.8,3.2c-2.9,1.4-5.2,3.1-7.5,5.5C4,13.1,1.5,18.4,0.6,24.7
	C0.2,27.7,0,28.3,0,43.8C0,49,0,55.8,0,65c0,27.1,0,35,0.2,36.6c0.5,5.4,1.3,8.8,3.1,12.6c3.4,7.1,10,12.5,17.7,14.5
	c2.7,0.7,5.6,1.1,9.4,1.3c1.6,0.1,18,0.1,34.4,0.1s32.8,0,34.4-0.1c4.4-0.2,7-0.6,9.8-1.3c3.8-1,7.4-2.8,10.5-5.3
	c3.1-2.5,5.5-5.7,7.3-9.2c1.8-3.6,2.7-7.2,3.1-12.3c0.1-1.1,0.1-19,0.1-36.8c0-17.8,0-35.7-0.1-36.8c-0.4-5.2-1.3-8.7-3.1-12.4
	c-1.5-3-3.2-5.3-5.6-7.6c-4.3-4.1-9.6-6.6-15.8-7.5c-3-0.4-3.6-0.6-19.2-0.6H65z"/>
<radialGradient id="SVGID_2_" cx="45.077" cy="84.8472" r="1" gradientTransform="matrix(11.3061 56.4668 232.817 -46.6161 -20285.3047 1419.2583)" gradientUnits="userSpaceOnUse">
	<stop  offset="0" style="stop-color:#3771C8"/>
	<stop  offset="0.128" style="stop-color:#3771C8"/>
	<stop  offset="1" style="stop-color:#6600FF;stop-opacity:0"/>
</radialGradient>
<path class="st1" d="M65,0C37.9,0,30,0,28.4,0.2c-5.6,0.5-9,1.3-12.8,3.2c-2.9,1.4-5.2,3.1-7.5,5.5C4,13.1,1.5,18.4,0.6,24.7
	C0.2,27.7,0,28.3,0,43.8C0,49,0,55.8,0,65c0,27.1,0,35,0.2,36.6c0.5,5.4,1.3,8.8,3.1,12.6c3.4,7.1,10,12.5,17.7,14.5
	c2.7,0.7,5.6,1.1,9.4,1.3c1.6,0.1,18,0.1,34.4,0.1s32.8,0,34.4-0.1c4.4-0.2,7-0.6,9.8-1.3c3.8-1,7.4-2.8,10.5-5.3
	c3.1-2.5,5.5-5.7,7.3-9.2c1.8-3.6,2.7-7.2,3.1-12.3c0.1-1.1,0.1-19,0.1-36.8c0-17.8,0-35.7-0.1-36.8c-0.4-5.2-1.3-8.7-3.1-12.4
	c-1.5-3-3.2-5.3-5.6-7.6c-4.3-4.1-9.6-6.6-15.8-7.5c-3-0.4-3.6-0.6-19.2-0.6H65z"/>
<path class="st2" d="M65,17c-13,0-14.7,0.1-19.8,0.3c-5.1,0.2-8.6,1-11.6,2.2c-3.2,1.2-5.8,2.9-8.5,5.5c-2.7,2.7-4.3,5.3-5.5,8.5
	c-1.2,3.1-2,6.5-2.2,11.7C17.1,50.3,17,52,17,65s0.1,14.7,0.3,19.8c0.2,5.1,1,8.6,2.2,11.6c1.2,3.2,2.9,5.8,5.5,8.5
	c2.7,2.7,5.3,4.3,8.5,5.5c3.1,1.2,6.5,2,11.7,2.2c5.1,0.2,6.8,0.3,19.8,0.3c13,0,14.7-0.1,19.8-0.3c5.1-0.2,8.6-1,11.7-2.2
	c3.2-1.2,5.8-2.9,8.5-5.5c2.7-2.7,4.3-5.3,5.5-8.5c1.2-3.1,2-6.5,2.2-11.7c0.2-5.1,0.3-6.8,0.3-19.8s-0.1-14.7-0.3-19.8
	c-0.2-5.1-1.1-8.6-2.2-11.7c-1.2-3.2-2.9-5.8-5.5-8.5c-2.7-2.7-5.3-4.3-8.5-5.5c-3.1-1.2-6.5-2-11.7-2.2C79.7,17.1,78,17,65,17
	L65,17z M60.7,25.6c1.3,0,2.7,0,4.3,0c12.8,0,14.3,0,19.4,0.3c4.7,0.2,7.2,1,8.9,1.7c2.2,0.9,3.8,1.9,5.5,3.6
	c1.7,1.7,2.7,3.3,3.6,5.5c0.7,1.7,1.4,4.2,1.7,8.9c0.2,5.1,0.3,6.6,0.3,19.4s0,14.3-0.3,19.4c-0.2,4.7-1,7.2-1.7,8.9
	c-0.9,2.2-1.9,3.8-3.6,5.5c-1.7,1.7-3.3,2.7-5.5,3.6c-1.7,0.7-4.2,1.4-8.9,1.7c-5.1,0.2-6.6,0.3-19.4,0.3c-12.8,0-14.3-0.1-19.4-0.3
	c-4.7-0.2-7.2-1-8.9-1.7c-2.2-0.9-3.8-1.9-5.5-3.6s-2.7-3.3-3.6-5.5c-0.7-1.7-1.4-4.2-1.7-8.9c-0.2-5.1-0.3-6.6-0.3-19.4
	s0-14.3,0.3-19.4c0.2-4.7,1-7.2,1.7-8.9c0.9-2.2,1.9-3.8,3.6-5.5c1.7-1.7,3.3-2.7,5.5-3.6c1.7-0.7,4.2-1.4,8.9-1.7
	C50,25.7,51.8,25.6,60.7,25.6L60.7,25.6z M90.6,33.6c-1.1,0-2.3,0.3-3.2,1c-0.9,0.6-1.7,1.5-2.1,2.6c-0.4,1.1-0.5,2.2-0.3,3.3
	c0.2,1.1,0.8,2.1,1.6,2.9c0.8,0.8,1.8,1.4,2.9,1.6c1.1,0.2,2.3,0.1,3.3-0.3c1.1-0.4,2-1.2,2.6-2.1c0.6-0.9,1-2.1,1-3.2
	C96.4,36.2,93.8,33.6,90.6,33.6L90.6,33.6z M65,40.3c-13.6,0-24.7,11-24.7,24.7s11,24.6,24.7,24.6s24.6-11,24.6-24.6
	S78.6,40.3,65,40.3L65,40.3z M65,49c8.8,0,16,7.2,16,16c0,8.8-7.2,16-16,16c-8.8,0-16-7.2-16-16C49,56.2,56.2,49,65,49L65,49z"/>
</svg>
