<svg xmlns="http://www.w3.org/2000/svg" xmlns:xlink="http://www.w3.org/1999/xlink" viewBox="0 0 48 48"><defs><style>.cls-1{fill:url(#Безымянный_градиент);}.cls-2{fill:#fff;}</style><linearGradient id="Безымянный_градиент" x1="31.03" y1="40.41" x2="19.03" y2="12.41" gradientTransform="matrix(1, 0, 0, -1, 0, 48)" gradientUnits="userSpaceOnUse"><stop offset="0" stop-color="#37aee2"/><stop offset="1" stop-color="#1e96c8"/></linearGradient></defs><g id="Слой_2" data-name="Слой 2"><g id="Слой_1-2" data-name="Слой 1"><path class="cls-1" d="M24,48A24,24,0,1,0,0,24,24,24,0,0,0,24,48Z"/><path class="cls-2" d="M8.94,25.17c2.8-1.54,5.94-2.83,8.86-4.13,5-2.12,10.09-4.21,15.2-6.15,1-.33,2.77-.65,3,.82-.1,2.08-.49,4.15-.76,6.22-.69,4.56-1.48,9.1-2.25,13.64a2.16,2.16,0,0,1-3.38,1.33c-2.91-2-5.85-3.92-8.72-5.93-.95-1-.07-2.34.77-3,2.4-2.36,4.94-4.37,7.22-6.86.61-1.48-1.2-.23-1.8.15-3.28,2.26-6.49,4.67-10,6.65-1.77,1-3.83.15-5.6-.4-1.59-.65-3.91-1.32-2.54-2.32Z"/></g></g></svg>