<svg xmlns="http://www.w3.org/2000/svg" viewBox="0 0 52 60.2"><defs><style>.cls-1{fill:#ff004f;}.cls-2{fill:#00f7ef;}</style></defs><g id="Слой_2" data-name="Слой 2"><g id="Слой_1-2" data-name="Слой 1"><g id="Layer_11" data-name="Layer 11"><path class="cls-1" d="M52,17.4v9.3c-.5,0-1.1.1-1.7.1a18.54,18.54,0,0,1-11.9-4.4V42.2a17.85,17.85,0,0,1-33,9.6,17.86,17.86,0,0,0,12.2,4.9,17.52,17.52,0,0,0,14.2-7.2,18.19,18.19,0,0,0,3.6-10.8V18.8a17.82,17.82,0,0,0,11.9,4.4,9.7,9.7,0,0,0,1.7-.1v-6a11.53,11.53,0,0,0,2.6.3Z"/><path class="cls-1" d="M23,24.3V34.6a8.33,8.33,0,0,0-2.2-.3,8.13,8.13,0,0,0-8,8.2,8.68,8.68,0,0,0,.5,2.8,8.33,8.33,0,0,1-3.4-6.6,8.13,8.13,0,0,1,8-8.2,7.8,7.8,0,0,1,2.2.3V24.2h.6A17,17,0,0,1,23,24.3Z"/><path class="cls-1" d="M39.9,10a13.45,13.45,0,0,1-3.8-6.1h2.4V5.3A15.88,15.88,0,0,0,39.9,10Z"/><path d="M49.1,17.2v6a9.15,9.15,0,0,1-1.7.1,18.54,18.54,0,0,1-11.9-4.4V38.7a17.75,17.75,0,0,1-30,13.1,18.14,18.14,0,0,1-2.7-9.5A17.89,17.89,0,0,1,20.1,24.4V31a8.33,8.33,0,0,0-2.2-.3,8.13,8.13,0,0,0-8,8.2,7.92,7.92,0,0,0,3.4,6.6,8.1,8.1,0,0,0,7.5,5.4,8.13,8.13,0,0,0,8-8.2V3.9h7.3A12.94,12.94,0,0,0,39.9,10,13.72,13.72,0,0,0,49.1,17.2Z"/><path class="cls-2" d="M20.1,20.8v3.4A17.89,17.89,0,0,0,2.8,42.1a18.14,18.14,0,0,0,2.7,9.5A18.1,18.1,0,0,1,0,38.5,17.86,17.86,0,0,1,17.8,20.6,16.41,16.41,0,0,1,20.1,20.8Z"/><path class="cls-2" d="M36.1,3.9H28.8V42.5a8.13,8.13,0,0,1-8,8.2,7.87,7.87,0,0,1-7.5-5.4,8.15,8.15,0,0,0,4.6,1.5,8,8,0,0,0,8-8.1V0h9.7V.2a4.87,4.87,0,0,0,.1,1.2A10.86,10.86,0,0,0,36.1,3.9Z"/><path class="cls-2" d="M49.1,13.5h0v3.6A13.69,13.69,0,0,1,39.8,10,13,13,0,0,0,49.1,13.5Z"/></g></g></g></svg>