<svg xmlns="http://www.w3.org/2000/svg" viewBox="0 0 112.2 112.2"><defs><style>.cls-1{fill:#4d76a1;}.cls-2{fill:#fff;fill-rule:evenodd;}</style></defs><g id="Слой_2" data-name="Слой 2"><g id="Capa_1" data-name="Capa 1"><circle class="cls-1" cx="56.1" cy="56.1" r="56.1"/><path class="cls-2" d="M54,80.7h4.4a3.66,3.66,0,0,0,2-.88A3.19,3.19,0,0,0,61,77.89s-.09-5.91,2.65-6.78,6.18,5.71,9.85,8.24c2.79,1.91,4.9,1.49,4.9,1.49l9.84-.14s5.14-.31,2.7-4.36c-.2-.33-1.42-3-7.31-8.46-6.17-5.73-5.34-4.8,2.09-14.71,4.52-6,6.33-9.71,5.77-11.29s-3.87-1.1-3.87-1.1l-11.08.07a2.54,2.54,0,0,0-1.43.25,3.12,3.12,0,0,0-1,1.19A64.5,64.5,0,0,1,70,50.93c-4.93,8.37-6.9,8.81-7.71,8.29-1.87-1.21-1.4-4.87-1.4-7.46,0-8.12,1.23-11.5-2.4-12.38a19,19,0,0,0-5.17-.51c-4,0-7.3,0-9.19.94-1.26.61-2.23,2-1.64,2.07a4.92,4.92,0,0,1,3.27,1.64c1.13,1.54,1.09,5,1.09,5s.66,9.56-1.52,10.74c-1.49.82-3.54-.84-7.94-8.44a70.46,70.46,0,0,1-4-8.2,3.33,3.33,0,0,0-.91-1.23,4.66,4.66,0,0,0-1.71-.69l-10.52.07s-1.58,0-2.16.73,0,1.88,0,1.88,8.24,19.28,17.57,29C44.26,81.29,54,80.7,54,80.7Z"/></g></g></svg>